<?xml version="1.0" standalone="no"?><!DOCTYPE svg PUBLIC "-//W3C//DTD SVG 1.1//EN" "http://www.w3.org/Graphics/SVG/1.1/DTD/svg11.dtd"><svg t="1591659163638" class="icon" viewBox="0 0 1024 1024" version="1.1" xmlns="http://www.w3.org/2000/svg" p-id="819" xmlns:xlink="http://www.w3.org/1999/xlink" width="200" height="200"><defs><style type="text/css"></style></defs><path d="M277.48 862.169c0 53.59-43.44 97.03-97.03 97.03s-97.04-43.44-97.04-97.03 43.44-97.03 97.03-97.03 97.04 43.44 97.04 97.03z m-78.26-797.41c-29.33-3.57-58.8 5.53-80.99 25.04a101.35 101.35 0 0 0-34.43 75.9c0.65 51.8 39.7 95.05 91.17 100.95 286.8 36.39 528.22 295.41 561.08 602.55 5.25 51.46 48.83 90.46 100.56 89.99 29.77 0.45 58.29-11.96 78.25-34.05a98.961 98.961 0 0 0 25.04-78.25c-44.21-396.75-361.93-733.63-740.68-780.98v-1.15z m6.65 334.15c-29.07-6.84-59.66 0.1-82.95 18.78a102.547 102.547 0 0 0-39.13 81c-0.22 47.06 32.34 87.92 78.25 98.21 117.38 28.17 219.11 143.2 244.94 278.97 9.39 46.99 50.3 81.05 98.21 81.78 30.24-0.07 58.9-13.54 78.25-36.78a98.616 98.616 0 0 0 21.52-81.78c-39.91-211.67-204.24-393.23-399.1-439.4v-0.78z" fill="#FFAD08" p-id="820"></path><path d="M119.01 937.289l135.77-135.77a95.832 95.832 0 0 1 22.69 61.43c0 53.59-43.44 97.03-97.04 97.03a95.88 95.88 0 0 1-61.42-22.69z m449.18-449.18a704.262 704.262 0 0 1 167.46 381.88c5.25 51.46 48.83 90.46 100.56 89.99 29.77 0.47 58.3-11.94 78.25-34.05a99.009 99.009 0 0 0 25.04-78.25 905.773 905.773 0 0 0-226.55-504.35l-144.76 144.78z m-162.77 388.92c9.39 46.99 50.3 81.05 98.21 81.78 30.24-0.06 58.91-13.53 78.25-36.78 19.1-22.64 27-52.67 21.52-81.78a586.957 586.957 0 0 0-125.6-263.72l-143.99 143.99a384.029 384.029 0 0 1 71.61 156.51z" fill="#D68650" p-id="821"></path></svg>